<svg xmlns="http://www.w3.org/2000/svg" viewBox="0 0 100 100" width="100" height="100">
    <!-- Shield outline -->
    <path
        d="M50 10 L30 20 Q25 25 25 35 L25 55 Q25 70 35 80 L50 90 L65 80 Q75 70 75 55 L75 35 Q75 25 70 20 Z"
        fill="#4a90c2" stroke="#2c5aa0" stroke-width="2" />

    <!-- Inner protective layer -->
    <path
        d="M50 18 L35 25 Q32 28 32 35 L32 52 Q32 63 40 70 L50 78 L60 70 Q68 63 68 52 L68 35 Q68 28 65 25 Z"
        fill="#7bb3f0" stroke="#4a90c2" stroke-width="1.5" />

    <!-- Heart symbol for care and protection -->
    <path d="M42 40 Q42 36 46 36 Q50 32 54 36 Q58 36 58 40 Q58 45 50 55 Q42 45 42 40 Z"
        fill="#e74c3c" opacity="0.9" />

    <!-- Protective cross/plus symbol -->
    <rect x="48" y="35" width="4" height="20" fill="white" opacity="0.8" />
    <rect x="40" y="43" width="20" height="4" fill="white" opacity="0.8" />

    <!-- Rays of hope/support emanating from shield -->
    <path d="M50 10 L48 5 L52 5 Z" fill="#f39c12" opacity="0.7" />
    <path d="M75 35 L80 33 L80 37 Z" fill="#f39c12" opacity="0.7" />
    <path d="M25 35 L20 33 L20 37 Z" fill="#f39c12" opacity="0.7" />
</svg>