<svg xmlns="http://www.w3.org/2000/svg" viewBox="0 0 100 100" width="100" height="100">
    <!-- Main person -->
    <circle cx="50" cy="30" r="12" fill="#4a90c2" stroke="#2c5aa0" stroke-width="2" />
    <path d="M35 60 Q35 50 50 50 Q65 50 65 60 L65 75 Q65 80 60 80 L40 80 Q35 80 35 75 Z"
        fill="#4a90c2" stroke="#2c5aa0" stroke-width="2" />

    <!-- Left person (partially visible) -->
    <circle cx="25" cy="35" r="10" fill="#7bb3f0" stroke="#4a90c2" stroke-width="1.5" />
    <path d="M15 65 Q15 57 25 57 Q35 57 35 65 L35 75 Q35 78 32 78 L18 78 Q15 78 15 75 Z"
        fill="#7bb3f0" stroke="#4a90c2" stroke-width="1.5" />

    <!-- Right person (partially visible) -->
    <circle cx="75" cy="35" r="10" fill="#7bb3f0" stroke="#4a90c2" stroke-width="1.5" />
    <path d="M65 65 Q65 57 75 57 Q85 57 85 65 L85 75 Q85 78 82 78 L68 78 Q65 78 65 75 Z"
        fill="#7bb3f0" stroke="#4a90c2" stroke-width="1.5" />

    <!-- Connection lines showing unity -->
    <path d="M40 45 Q30 40 25 45" stroke="#3d7eb8" stroke-width="2" fill="none" opacity="0.6" />
    <path d="M60 45 Q70 40 75 45" stroke="#3d7eb8" stroke-width="2" fill="none" opacity="0.6" />

    <!-- Heart symbol in center to represent care -->
    <path d="M45 50 Q45 47 48 47 Q50 45 52 47 Q55 47 55 50 Q55 53 50 58 Q45 53 45 50 Z"
        fill="#e74c3c" opacity="0.8" />
</svg>